<svg width="61" height="61" viewBox="0 0 61 61" fill="none" xmlns="http://www.w3.org/2000/svg">
<path d="M13.6542 61H1.00759V20.2734H13.6542V61ZM7.32409 14.7179C3.28011 14.7179 0 11.3683 0 7.32425C2.8945e-08 5.38174 0.771643 3.51879 2.14517 2.14522C3.51871 0.77166 5.38162 0 7.32409 0C9.26655 0 11.1295 0.77166 12.503 2.14522C13.8765 3.51879 14.6482 5.38174 14.6482 7.32425C14.6482 11.3683 11.3667 14.7179 7.32409 14.7179ZM60.9864 61H48.367V41.1746C48.367 36.4497 48.2717 30.3904 41.7918 30.3904C35.2166 30.3904 34.209 35.5238 34.209 40.8341V61H21.576V20.2734H33.7052V25.8289H33.8822C35.5706 22.6291 39.6949 19.2522 45.848 19.2522C58.6471 19.2522 61 27.6807 61 38.6283V61H60.9864Z" fill="white"/>
</svg>
