<svg width="49" height="63" viewBox="0 0 49 63" fill="none" xmlns="http://www.w3.org/2000/svg">
<path d="M0 22.6125C0 19.967 0.559875 17.3432 1.67765 14.7391C2.79542 12.1349 4.39987 9.72173 6.48902 7.49552C8.57817 5.27127 11.3221 3.46431 14.719 2.07859C18.1158 0.692863 21.8846 0 26.0194 0C32.73 0 38.2377 2.05694 42.5426 6.17278C46.8475 10.2886 49 15.1387 49 20.7229C49 27.9035 47.176 33.8341 43.5239 38.5169C39.8719 43.1996 35.1574 45.54 29.3747 45.54C27.4774 45.54 25.693 45.0971 24.0272 44.2172C22.3574 43.3335 21.1862 42.2646 20.5136 41.0029L17.9813 50.9569C17.7716 51.7521 17.4966 52.5611 17.1583 53.38C16.822 54.1988 16.452 54.9861 16.0504 55.742C15.6488 56.4978 15.2492 57.2104 14.8476 57.8836C14.446 58.5568 14.0463 59.1866 13.6447 59.7732C13.2431 60.3617 12.8949 60.8558 12.6002 61.2534C12.3054 61.651 12.0304 61.9994 11.7772 62.2927L11.3953 62.7986C11.2687 62.9678 11.1006 63.0289 10.8889 62.9875C10.6792 62.9462 10.5526 62.8202 10.509 62.6116C10.509 62.5702 10.4774 62.275 10.4141 61.7297C10.3508 61.1845 10.2875 60.6058 10.2242 59.9976C10.1609 59.3874 10.0975 58.602 10.0342 57.6356C9.97093 56.6691 9.95115 55.7341 9.97093 54.8326C9.99269 53.9291 10.054 52.9312 10.1609 51.8387C10.2657 50.7463 10.424 49.7405 10.6357 48.8173C11.1006 46.843 12.6615 40.2707 15.3204 29.1002C14.9821 28.429 14.7071 27.62 14.4974 26.6752C14.2857 25.7304 14.1809 24.9647 14.1809 24.3762L14.1195 23.4314C14.1195 20.7446 14.8041 18.5085 16.177 16.7232C17.548 14.9399 19.2059 14.0462 21.1467 14.0462C22.7096 14.0462 23.9223 14.56 24.7869 15.5894C25.6534 16.6169 26.0847 17.9101 26.0847 19.4631C26.0847 20.4296 25.9066 21.6146 25.5485 23.0219C25.1904 24.4293 24.7137 26.0453 24.1221 27.872C23.5326 29.6986 23.1092 31.1788 22.856 32.3126C22.4346 34.2042 22.8045 35.8419 23.9639 37.2256C25.1271 38.6114 26.6762 39.3062 28.6189 39.3062C31.9545 39.3062 34.7064 37.4264 36.8825 33.6688C39.0548 29.9092 40.1409 25.3643 40.1409 20.032C40.1409 15.9595 38.8114 12.631 36.1506 10.0485C33.4916 7.46599 29.7783 6.17475 25.0104 6.17475C19.6926 6.17475 15.3758 7.87541 12.064 11.2767C8.75028 14.6781 7.0944 18.7506 7.0944 23.4963C7.0944 26.3091 7.89563 28.681 9.50008 30.6139C10.0481 31.2438 10.2182 31.917 10.0065 32.6295C9.92147 32.8401 9.79486 33.3224 9.62669 34.0782C9.45853 34.8341 9.33192 35.3163 9.24685 35.5269C9.16376 35.9875 8.95208 36.2926 8.61378 36.4383C8.27548 36.5859 7.89563 36.5761 7.47424 36.4068C4.98151 35.399 3.11394 33.6668 1.86757 31.2103C0.621205 28.7538 0 25.8879 0 22.6125Z" fill="white"/>
</svg>
