<svg width="70" height="58" viewBox="0 0 70 58" fill="none" xmlns="http://www.w3.org/2000/svg">
<path d="M67 3.02914C64.2142 4.98664 61.1298 6.48382 57.8655 7.46301C56.1134 5.45621 53.785 4.03384 51.195 3.38827C48.605 2.74271 45.8785 2.9051 43.3842 3.85347C40.8899 4.80185 38.7482 6.49046 37.2487 8.69093C35.7492 10.8914 34.9642 13.4975 35 16.1569V19.0548C29.8877 19.1869 24.8219 18.0574 20.2538 15.767C15.6858 13.4765 11.7573 10.0962 8.81818 5.9271C8.81818 5.9271 -2.81818 32.0087 23.3636 43.6005C17.3724 47.6518 10.2354 49.6831 3 49.3964C29.1818 63.8862 61.1818 49.3964 61.1818 16.0699C61.1791 15.2627 61.1012 14.4575 60.9491 13.6646C63.9181 10.7478 66.0133 7.06516 67 3.02914V3.02914Z" stroke="white" stroke-width="5" stroke-linecap="round" stroke-linejoin="round"/>
</svg>
